<svg xmlns="http://www.w3.org/2000/svg" viewBox="0 0 400 300">
  <defs>
    <linearGradient id="bg" x1="0" y1="0" x2="1" y2="1">
      <stop offset="0" stop-color="#f4f1ea"/>
      <stop offset="1" stop-color="#eee5cf"/>
    </linearGradient>
    <linearGradient id="curry" x1="0" y1="0" x2="0" y2="1">
      <stop offset="0" stop-color="#e08a3a"/>
      <stop offset="1" stop-color="#b3621f"/>
    </linearGradient>
  </defs>
  <rect width="400" height="300" fill="url(#bg)"/>
  <ellipse cx="200" cy="215" rx="135" ry="24" fill="#0e2f22" opacity="0.08"/>
  <path d="M75 160 a125 70 0 0 0 250 0 Z" fill="#ffffff" stroke="#c9a24b" stroke-width="3"/>
  <ellipse cx="200" cy="160" rx="110" ry="34" fill="url(#curry)"/>
  <g fill="#f6e6c8" opacity="0.95">
    <rect x="150" y="140" width="24" height="24" rx="3" transform="rotate(-8 162 152)"/>
    <rect x="195" y="132" width="24" height="24" rx="3" transform="rotate(6 207 144)"/>
    <rect x="235" y="145" width="24" height="24" rx="3" transform="rotate(-10 247 157)"/>
    <rect x="175" y="160" width="22" height="22" rx="3" transform="rotate(10 186 171)"/>
  </g>
  <g stroke="#2f7a4f" stroke-width="3" fill="none" opacity="0.8">
    <path d="M150 125 q5 -8 12 -4"/>
    <path d="M230 118 q5 -8 12 -4"/>
  </g>
  <text x="200" y="70" text-anchor="middle" font-family="Georgia, serif" font-size="22" fill="#0e2f22" font-weight="bold">Veg Main Course</text>
</svg>
